<?xml version="1.0" standalone="no"?>
<!DOCTYPE svg PUBLIC "-//W3C//DTD SVG 20010904//EN"
 "http://www.w3.org/TR/2001/REC-SVG-20010904/DTD/svg10.dtd">
<svg version="1.0" xmlns="http://www.w3.org/2000/svg"
 width="512.000000pt" height="512.000000pt" viewBox="0 0 512.000000 512.000000"
 preserveAspectRatio="xMidYMid meet">
<metadata>
Created by potrace 1.11, written by Peter Selinger 2001-2013
</metadata>
<g transform="translate(0.000000,512.000000) scale(0.100000,-0.100000)"
fill="#000000" stroke="none">
<path d="M2255 4774 c-60 -9 -169 -31 -241 -49 -911 -233 -1578 -1004 -1675
-1934 -15 -141 -6 -450 15 -577 151 -887 799 -1590 1665 -1809 208 -52 271
-59 536 -60 200 0 271 4 355 18 681 120 1237 497 1580 1074 374 627 412 1414
100 2070 -119 250 -248 433 -444 629 -332 332 -730 540 -1194 625 -157 29
-532 36 -697 13z m449 -174 c492 -36 931 -232 1285 -575 338 -327 545 -740
606 -1208 8 -65 15 -128 15 -140 0 -16 -72 50 -288 266 -158 158 -292 287
-297 287 -5 0 -78 -69 -162 -152 -151 -151 -153 -152 -172 -133 -10 11 -229
247 -486 525 -257 278 -500 538 -539 579 l-70 73 -31 -34 c-16 -19 -264 -286
-549 -592 l-520 -557 -150 150 -151 149 -335 -330 -335 -330 -3 59 c-7 126 37
379 100 568 256 774 968 1332 1778 1394 152 12 152 12 304 1z m384 -1284 c265
-285 482 -521 482 -525 0 -3 -215 -221 -477 -483 l-478 -478 -487 481 c-269
264 -488 486 -488 492 0 7 114 134 253 283 138 149 353 380 477 512 124 133
227 241 231 240 3 -2 222 -236 487 -522z m-1030 -1201 c226 -225 412 -413 412
-419 0 -10 -511 -523 -812 -815 l-96 -94 -78 48 c-374 234 -671 591 -828 995
-44 116 -97 311 -115 425 l-10 60 330 330 330 329 227 -225 c125 -125 413
-410 640 -634z m2261 561 l284 -284 -7 -69 c-20 -194 -97 -457 -192 -649 -302
-612 -878 -1030 -1555 -1129 -142 -20 -426 -20 -572 1 -142 20 -310 63 -429
109 -51 20 -94 38 -97 41 -6 6 2261 2263 2274 2263 6 1 138 -127 294 -283z"/>
</g>
</svg>
